<mxfile host="app.diagrams.net" agent="Mozilla/5.0 (Windows NT 10.0; Win64; x64) AppleWebKit/537.36 (KHTML, like Gecko) Chrome/131.0.0.0 Safari/537.36 Edg/131.0.0.0" version="25.0.3">
  <diagram name="Page-1" id="i9P-pWKcPwAOLcCXHFbH">
    <mxGraphModel dx="1613" dy="1632" grid="1" gridSize="10" guides="1" tooltips="1" connect="1" arrows="1" fold="1" page="1" pageScale="1" pageWidth="827" pageHeight="1169" math="0" shadow="0">
      <root>
        <mxCell id="0" />
        <mxCell id="1" parent="0" />
        <mxCell id="J3jjTzWWKCBItpekzf1M-9" value="" style="verticalLabelPosition=bottom;html=1;verticalAlign=top;align=center;shape=mxgraph.floorplan.wall;fillColor=#b1ddf0;strokeColor=#10739e;" vertex="1" parent="1">
          <mxGeometry x="160" y="50" width="160" height="10" as="geometry" />
        </mxCell>
        <mxCell id="J3jjTzWWKCBItpekzf1M-10" value="" style="verticalLabelPosition=bottom;html=1;verticalAlign=top;align=center;shape=mxgraph.floorplan.wall;fillColor=#b1ddf0;direction=south;strokeColor=#10739e;" vertex="1" parent="1">
          <mxGeometry x="-80" y="-10" width="10" height="330" as="geometry" />
        </mxCell>
        <mxCell id="J3jjTzWWKCBItpekzf1M-11" value="" style="verticalLabelPosition=bottom;html=1;verticalAlign=top;align=center;shape=mxgraph.floorplan.wall;fillColor=#b1ddf0;strokeWidth=0;dashed=1;perimeterSpacing=0;strokeColor=#10739e;" vertex="1" parent="1">
          <mxGeometry x="-80" y="310" width="310" height="10" as="geometry" />
        </mxCell>
        <mxCell id="J3jjTzWWKCBItpekzf1M-12" value="" style="verticalLabelPosition=bottom;html=1;verticalAlign=top;align=center;shape=mxgraph.floorplan.wall;fillColor=#b1ddf0;direction=south;strokeColor=#10739e;" vertex="1" parent="1">
          <mxGeometry x="40" y="-10" width="10" height="320" as="geometry" />
        </mxCell>
        <mxCell id="J3jjTzWWKCBItpekzf1M-13" value="" style="verticalLabelPosition=bottom;html=1;verticalAlign=top;align=center;shape=mxgraph.floorplan.wall;fillColor=#b1ddf0;strokeColor=#10739e;" vertex="1" parent="1">
          <mxGeometry x="40" y="210" width="200" height="10" as="geometry" />
        </mxCell>
        <mxCell id="J3jjTzWWKCBItpekzf1M-14" value="" style="verticalLabelPosition=bottom;html=1;verticalAlign=top;align=center;shape=mxgraph.floorplan.wall;fillColor=#b1ddf0;direction=south;strokeColor=#10739e;" vertex="1" parent="1">
          <mxGeometry x="230" width="10" height="180" as="geometry" />
        </mxCell>
        <mxCell id="J3jjTzWWKCBItpekzf1M-15" value="" style="verticalLabelPosition=bottom;html=1;verticalAlign=top;align=center;shape=mxgraph.floorplan.wall;fillColor=#b1ddf0;strokeColor=#10739e;" vertex="1" parent="1">
          <mxGeometry x="240" y="160" width="40" height="10" as="geometry" />
        </mxCell>
        <mxCell id="J3jjTzWWKCBItpekzf1M-16" value="" style="verticalLabelPosition=bottom;html=1;verticalAlign=top;align=center;shape=mxgraph.floorplan.wall;fillColor=#b1ddf0;strokeColor=#10739e;" vertex="1" parent="1">
          <mxGeometry x="314" y="160" width="156" height="10" as="geometry" />
        </mxCell>
        <mxCell id="J3jjTzWWKCBItpekzf1M-18" value="" style="verticalLabelPosition=bottom;html=1;verticalAlign=top;align=center;shape=mxgraph.floorplan.wall;fillColor=#b1ddf0;strokeColor=#10739e;" vertex="1" parent="1">
          <mxGeometry x="350" y="50" width="120" height="10" as="geometry" />
        </mxCell>
        <mxCell id="J3jjTzWWKCBItpekzf1M-19" value="" style="verticalLabelPosition=bottom;html=1;verticalAlign=top;align=center;shape=mxgraph.floorplan.wall;fillColor=#b1ddf0;direction=south;strokeColor=#10739e;" vertex="1" parent="1">
          <mxGeometry x="190" y="320" width="10" height="40" as="geometry" />
        </mxCell>
        <mxCell id="J3jjTzWWKCBItpekzf1M-21" value="" style="verticalLabelPosition=bottom;html=1;verticalAlign=top;align=center;shape=mxgraph.floorplan.wall;fillColor=#b1ddf0;strokeColor=#10739e;" vertex="1" parent="1">
          <mxGeometry x="-70" y="-10" width="110" height="10" as="geometry" />
        </mxCell>
        <mxCell id="J3jjTzWWKCBItpekzf1M-22" value="" style="verticalLabelPosition=bottom;html=1;verticalAlign=top;align=center;shape=mxgraph.floorplan.wall;fillColor=#b1ddf0;direction=south;strokeColor=#10739e;" vertex="1" parent="1">
          <mxGeometry x="470" y="50" width="10" height="430" as="geometry" />
        </mxCell>
        <mxCell id="J3jjTzWWKCBItpekzf1M-23" value="" style="verticalLabelPosition=bottom;html=1;verticalAlign=top;align=center;shape=mxgraph.floorplan.wall;fillColor=#b1ddf0;strokeColor=#10739e;" vertex="1" parent="1">
          <mxGeometry x="40" y="-10" width="440" height="10" as="geometry" />
        </mxCell>
        <mxCell id="J3jjTzWWKCBItpekzf1M-24" value="" style="verticalLabelPosition=bottom;html=1;verticalAlign=top;align=center;shape=mxgraph.floorplan.wall;fillColor=#b1ddf0;direction=south;strokeColor=#10739e;" vertex="1" parent="1">
          <mxGeometry x="190" y="430" width="10" height="60" as="geometry" />
        </mxCell>
        <mxCell id="J3jjTzWWKCBItpekzf1M-26" value="" style="verticalLabelPosition=bottom;html=1;verticalAlign=top;align=center;shape=mxgraph.floorplan.wall;fillColor=#b1ddf0;direction=south;strokeColor=#10739e;" vertex="1" parent="1">
          <mxGeometry x="300" y="470" width="10" height="20" as="geometry" />
        </mxCell>
        <mxCell id="J3jjTzWWKCBItpekzf1M-28" value="" style="verticalLabelPosition=bottom;html=1;verticalAlign=top;align=center;shape=mxgraph.floorplan.wall;fillColor=#b1ddf0;direction=south;strokeColor=#10739e;" vertex="1" parent="1">
          <mxGeometry x="360" y="470" width="10" height="20" as="geometry" />
        </mxCell>
        <mxCell id="J3jjTzWWKCBItpekzf1M-29" value="" style="verticalLabelPosition=bottom;html=1;verticalAlign=top;align=center;shape=mxgraph.floorplan.wall;fillColor=#b1ddf0;strokeColor=#10739e;" vertex="1" parent="1">
          <mxGeometry x="370" y="480" width="110" height="10" as="geometry" />
        </mxCell>
        <mxCell id="J3jjTzWWKCBItpekzf1M-30" value="" style="verticalLabelPosition=bottom;html=1;verticalAlign=top;align=center;shape=mxgraph.floorplan.stairs;" vertex="1" parent="1">
          <mxGeometry x="50" y="220" width="180" height="89" as="geometry" />
        </mxCell>
        <mxCell id="J3jjTzWWKCBItpekzf1M-31" value="" style="verticalLabelPosition=bottom;html=1;verticalAlign=top;align=center;shape=mxgraph.floorplan.doorDouble;aspect=fixed;fillColor=#f5f5f5;strokeColor=#666666;gradientColor=#b3b3b3;" vertex="1" parent="1">
          <mxGeometry x="310" y="460.44" width="50" height="26.56" as="geometry" />
        </mxCell>
        <mxCell id="J3jjTzWWKCBItpekzf1M-32" value="" style="verticalLabelPosition=bottom;html=1;verticalAlign=top;align=center;shape=mxgraph.floorplan.wall;fillColor=#b1ddf0;strokeColor=#10739e;" vertex="1" parent="1">
          <mxGeometry x="200" y="480" width="100" height="10" as="geometry" />
        </mxCell>
        <mxCell id="J3jjTzWWKCBItpekzf1M-33" value="" style="verticalLabelPosition=bottom;html=1;verticalAlign=top;align=center;shape=mxgraph.floorplan.printer;rotation=-90;" vertex="1" parent="1">
          <mxGeometry x="280" y="290" width="70" height="50" as="geometry" />
        </mxCell>
        <mxCell id="J3jjTzWWKCBItpekzf1M-34" value="" style="verticalLabelPosition=bottom;html=1;verticalAlign=top;align=center;shape=mxgraph.floorplan.printer;" vertex="1" parent="1">
          <mxGeometry x="360" y="210" width="40" height="47" as="geometry" />
        </mxCell>
        <mxCell id="J3jjTzWWKCBItpekzf1M-35" value="" style="verticalLabelPosition=bottom;html=1;verticalAlign=top;align=center;shape=mxgraph.floorplan.printer;rotation=-180;" vertex="1" parent="1">
          <mxGeometry x="370" y="360" width="40" height="47" as="geometry" />
        </mxCell>
        <mxCell id="J3jjTzWWKCBItpekzf1M-36" value="" style="verticalLabelPosition=bottom;html=1;verticalAlign=top;align=center;shape=mxgraph.floorplan.table;rotation=90;" vertex="1" parent="1">
          <mxGeometry x="355" y="290" width="55" height="40" as="geometry" />
        </mxCell>
        <mxCell id="J3jjTzWWKCBItpekzf1M-37" value="" style="verticalLabelPosition=bottom;html=1;verticalAlign=top;align=center;shape=mxgraph.floorplan.crt_tv;rotation=90;" vertex="1" parent="1">
          <mxGeometry x="430" y="300" width="50" height="20" as="geometry" />
        </mxCell>
        <mxCell id="J3jjTzWWKCBItpekzf1M-38" value="" style="verticalLabelPosition=bottom;html=1;verticalAlign=top;align=center;shape=mxgraph.floorplan.wall;fillColor=#b1ddf0;strokeColor=#10739e;" vertex="1" parent="1">
          <mxGeometry x="50" y="50" width="70" height="10" as="geometry" />
        </mxCell>
      </root>
    </mxGraphModel>
  </diagram>
</mxfile>
